<svg width="34" height="63" viewBox="0 0 34 63" fill="none" xmlns="http://www.w3.org/2000/svg">
<path d="M0.986816 17.3535C0.986816 8.28047 7.95134 0.97168 16.4868 0.97168C25.0622 0.97168 33.0161 8.32081 33.0161 17.3535C33.0161 18.3588 32.6119 19.7733 31.8929 21.5356C31.1802 23.2825 30.1846 25.3101 29.0546 27.5218C28.6199 28.3726 28.1655 29.2503 27.7005 30.1483C25.7561 33.9036 23.6275 38.0148 21.9865 42.0067C19.7496 47.4485 18.252 52.6692 17.3135 56.5281C16.9637 57.9667 16.6914 59.2169 16.4873 60.2198C16.2858 59.2177 16.0186 57.9686 15.6786 56.5312C14.7665 52.6741 13.3291 47.4558 11.2284 42.0166C9.71127 38.0884 7.7694 34.044 5.98928 30.3364C5.52892 29.3776 5.07938 28.4413 4.6508 27.5354C3.60461 25.324 2.68418 23.2959 2.0256 21.5482C1.36181 19.7866 0.986816 18.3667 0.986816 17.3535Z" fill="#C44949" stroke="white"/>
</svg>
