<svg width="33" height="48" viewBox="0 0 33 48" fill="none" xmlns="http://www.w3.org/2000/svg">
<path d="M31.9868 17.3535C31.9868 19.5697 31.0276 22.5341 29.5326 25.7839C28.0452 29.0171 26.0577 32.4701 24.0635 35.6429C22.0704 38.814 20.0764 41.696 18.5803 43.7858C17.8324 44.8304 17.2093 45.6765 16.7735 46.2611C16.6663 46.4049 16.5704 46.5328 16.4868 46.644C16.4032 46.5328 16.3074 46.4049 16.2002 46.2611C15.7643 45.6765 15.1413 44.8304 14.3934 43.7858C12.8972 41.696 10.9033 38.814 8.91014 35.6429C6.91597 32.4701 4.92841 29.0171 3.44106 25.7839C1.94602 22.5341 0.986816 19.5697 0.986816 17.3535C0.986816 8.28047 7.95134 0.97168 16.4868 0.97168C25.0223 0.97168 31.9868 8.28047 31.9868 17.3535Z" fill="#C44949" stroke="#606060"/>
</svg>
