<svg width="51" height="34" viewBox="0 0 102 69" fill="none" xmlns="http://www.w3.org/2000/svg">
<path d="M39.5423 16.1721L31.1092 8.91948L35.9955 26.5957L47.7277 32.8442L39.5423 16.1721Z" fill="black"/>
<rect x="27.356" y="18.3213" width="62.6794" height="11.9232" transform="rotate(28.0434 27.356 18.3213)" fill="#F5D505"/>
<path d="M27.948 43.1203L15.2307 40.6131L33.6814 28.6005L43.8463 34.0151L27.948 43.1203Z" fill="black"/>
<path d="M44.8295 44.543L42.9408 40.2284L66.8181 52.8596L62.4869 52.8596L44.8295 44.543Z" fill="black"/>
<path d="M82.6758 47.7896L88.0956 50.6766C105.933 60.1783 100.158 70.6111 82.49 61.1999L77.0702 58.3129L82.6758 47.7896Z" fill="black"/>
<path d="M15.4473 0.163086L25.8097 5.68296L27.4033 18.2379L22.1266 28.1439L10.9561 33.5676L0.595786 28.0488L11.0229 15.5351L15.4473 0.163086Z" fill="black"/>
</svg>
