<svg width="34" height="63" viewBox="0 0 34 63" fill="none" xmlns="http://www.w3.org/2000/svg">
<path d="M1.30225 17.3535C1.30225 8.28047 8.26677 0.97168 16.8022 0.97168C25.3776 0.97168 33.3316 8.32081 33.3316 17.3535C33.3316 18.3588 32.9274 19.7733 32.2083 21.5356C31.4956 23.2825 30.5 25.3101 29.37 27.5218C28.9353 28.3726 28.4809 29.2503 28.0159 30.1483C26.0715 33.9036 23.9429 38.0148 22.302 42.0067C20.065 47.4485 18.5674 52.6692 17.629 56.5281C17.2791 57.9667 17.0068 59.2169 16.8027 60.2198C16.6012 59.2177 16.334 57.9686 15.9941 56.5312C15.0819 52.6741 13.6446 47.4558 11.5439 42.0166C10.0267 38.0884 8.08483 34.044 6.30471 30.3364C5.84435 29.3776 5.39481 28.4413 4.96623 27.5354C3.92004 25.324 2.99961 23.2959 2.34103 21.5482C1.67724 19.7866 1.30225 18.3667 1.30225 17.3535Z" fill="#7AC449" stroke="white"/>
</svg>
