<svg width="33" height="48" viewBox="0 0 33 48" fill="none" xmlns="http://www.w3.org/2000/svg">
<path d="M31.5781 17.3535C31.5781 19.5697 30.6189 22.5341 29.1239 25.7839C27.6365 29.0171 25.649 32.4701 23.6548 35.6429C21.6617 38.814 19.6677 41.696 18.1716 43.7858C17.4237 44.8304 16.8006 45.6765 16.3648 46.2611C16.2576 46.4049 16.1617 46.5328 16.0781 46.644C15.9945 46.5328 15.8987 46.4049 15.7915 46.2611C15.3556 45.6765 14.7326 44.8304 13.9847 43.7858C12.4885 41.696 10.4946 38.814 8.50145 35.6429C6.50728 32.4701 4.51972 29.0171 3.03236 25.7839C1.53733 22.5341 0.578125 19.5697 0.578125 17.3535C0.578125 8.28047 7.54265 0.97168 16.0781 0.97168C24.6136 0.97168 31.5781 8.28047 31.5781 17.3535Z" fill="#7AC449" stroke="#606060"/>
</svg>
